# xmcd CD database file
#
# Track frame offsets:
#	150
#	28875
#	50646
#	76041
#	95372
#	113251
#	136131
#	163251
#	180587
#	201062
#	217652
#	239846
#	259164
#	276552
#	294235
#	312122
#
# Disc length: 4377 seconds
#
# Revision: 0
# Processed by: cddbd v1.4PL0 Copyright (c) Steve Scherf et al.
# Submitted via: CDex 1.50Beta7
#
DISCID=de111710
DTITLE=Sting - Greatest Hits
DYEAR=2001
DGENRE=New Age
TTITLE0=Brand New Day
TTITLE1=Desert Rose (Feat. Cheb Mami)
TTITLE2=Fill Her Up
TTITLE3=You Were Meant For Me
TTITLE4=I'm So Happy I Can't Stop Crying
TTITLE5=This Cowboy Song
TTITLE6=When We Dance
TTITLE7=You Still Touch Me
TTITLE8=If I Ever Lose My Haith In You
TTITLE9=Fields Of Gold
TTITLE10=All This Time
TTITLE11=If You Love Somebody Set Them Free
TTITLE12=We'll Be Together
TTITLE13=Mad About You
TTITLE14=Russians
TTITLE15=Love is Seventh Wave
EXTD=YEAR: 2001
EXTT0=
EXTT1=
EXTT2=
EXTT3=
EXTT4=
EXTT5=
EXTT6=
EXTT7=
EXTT8=
EXTT9=
EXTT10=
EXTT11=
EXTT12=
EXTT13=
EXTT14=
EXTT15=
PLAYORDER=
